 <svg  version="1.0" xmlns="http://www.w3.org/2000/svg"  width="300.000000pt" height="183.000000pt" viewBox="0 0 300.000000 183.000000"  preserveAspectRatio="xMidYMid meet">  <g transform="translate(0.000000,183.000000) scale(0.100000,-0.100000)" fill="#6212f8" stroke="none"> <path d="M1490 1735 c0 -53 1 -55 28 -55 26 0 27 2 27 55 0 53 -1 55 -27 55 -27 0 -28 -2 -28 -55z"/> <path d="M1490 1574 l0 -56 -34 30 c-47 41 -121 58 -185 42 -54 -13 -122 -64 -146 -110 -10 -19 -25 -30 -49 -34 -44 -8 -119 -75 -144 -129 -12 -23 -24 -64 -28 -91 -5 -39 -14 -55 -42 -80 -45 -39 -88 -131 -97 -204 -7 -66 7 -149 35 -207 12 -24 20 -62 20 -91 0 -138 91 -255 210 -271 22 -3 40 -9 40 -14 0 -18 65 -81 103 -101 90 -45 220 -30 285 33 l32 31 0 -61 c0 -60 0 -61 28 -61 l27 0 -3 210 -3 210 31 0 c27 0 30 3 30 31 0 29 -2 30 -30 24 -30 -7 -30 -6 -30 39 0 44 1 46 30 46 27 0 30 3 30 31 0 29 -2 30 -30 24 -30 -7 -30 -6 -30 39 l0 46 60 0 60 0 0 31 0 31 -60 -7 -60 -7 0 46 c0 44 1 46 30 46 27 0 30 3 30 30 0 27 -2 29 -30 24 -30 -6 -30 -6 -30 40 l0 46 83 0 82 1 59 73 59 73 48 -5 c45 -4 51 -2 84 31 29 29 35 42 35 77 0 34 -6 48 -34 76 -28 28 -42 34 -76 34 -34 0 -48 -6 -76 -34 -27 -27 -34 -42 -34 -72 0 -22 4 -45 9 -53 7 -11 -7 -33 -51 -83 l-61 -68 -63 0 -64 0 0 200 0 200 -25 0 c-24 0 -25 -3 -25 -56z m-85 -57 c51 -28 85 -92 85 -159 0 -32 -4 -48 -12 -48 -31 1 -97 41 -114 69 -14 24 -23 30 -39 25 -30 -10 -31 -12 -11 -49 24 -44 84 -85 135 -92 l41 -6 0 -112 0 -113 -37 20 c-67 34 -140 11 -225 -72 -74 -72 -130 -78 -158 -17 -15 32 -71 77 -96 77 -9 0 -14 -11 -14 -29 0 -22 6 -30 23 -35 56 -14 59 -98 4 -124 -32 -15 -39 -62 -9 -62 26 0 79 36 87 59 5 18 15 21 56 21 61 0 79 9 146 71 83 78 143 90 194 40 l29 -29 0 -166 c0 -165 0 -166 -22 -166 -38 -1 -101 -35 -136 -74 -31 -36 -42 -66 -23 -66 5 0 15 -2 23 -5 8 -3 21 7 31 25 19 31 52 52 100 64 l27 6 0 -65 c0 -126 -56 -198 -170 -219 -75 -13 -171 38 -209 111 -20 39 -13 112 14 159 28 48 107 94 162 94 31 0 33 2 33 34 0 36 37 90 68 100 21 7 26 56 5 56 -44 0 -123 -75 -123 -116 0 -15 -11 -23 -47 -32 -27 -7 -65 -26 -85 -43 -20 -16 -41 -29 -46 -29 -16 0 -63 42 -71 63 -5 13 -17 21 -34 21 -22 1 -27 -3 -27 -21 0 -29 55 -91 87 -99 17 -5 22 -11 18 -23 -18 -43 -26 -87 -21 -113 5 -27 4 -29 -17 -23 -89 26 -152 118 -152 225 0 50 -6 75 -25 110 -22 39 -25 58 -25 140 0 79 4 102 22 136 22 40 85 104 103 104 6 0 10 24 10 54 0 74 40 149 98 183 l42 25 0 -36 c0 -19 7 -53 16 -75 l15 -39 -40 -38 c-22 -22 -43 -51 -47 -66 -6 -26 -4 -28 23 -28 22 0 31 6 39 28 6 15 23 33 37 41 25 13 31 12 65 -6 20 -12 54 -24 75 -28 36 -7 37 -6 37 23 0 26 -4 30 -35 35 -51 8 -95 44 -117 95 -65 146 96 288 237 209z m510 -52 c14 -13 25 -29 25 -35 0 -16 -47 -60 -65 -60 -21 0 -55 36 -55 58 1 29 31 58 63 61 4 1 19 -10 32 -24z"/> <path d="M2075 1343 c-25 -6 -75 -52 -75 -70 0 -9 -14 -13 -40 -13 -39 0 -41 -2 -97 -86 -43 -65 -61 -84 -75 -81 -14 4 -18 -1 -18 -24 0 -26 3 -29 35 -29 33 0 38 5 91 85 45 67 62 85 81 85 14 0 23 -6 23 -15 0 -9 12 -27 26 -40 73 -68 184 -20 184 80 0 49 -22 83 -66 101 -35 15 -36 15 -69 7z m67 -70 c36 -33 10 -93 -42 -93 -35 0 -50 17 -50 57 0 49 54 71 92 36z"/> <path d="M1659 1096 c0 0 -2 -13 -3 -28 -1 -24 2 -28 26 -28 24 0 28 4 28 29 0 24 -4 29 -25 29 -14 0 -25 -1 -26 -2z"/> <path d="M2078 1024 c-15 -8 -35 -28 -44 -45 l-15 -30 -100 5 -99 6 0 -30 0 -30 103 0 c95 0 103 -1 112 -22 35 -77 159 -79 193 -2 47 101 -55 200 -150 148z m98 -69 c32 -49 -22 -104 -74 -76 -29 16 -37 48 -18 76 23 34 70 34 92 0z"/> <path d="M1710 930 c0 -27 3 -30 30 -30 27 0 30 3 30 30 0 27 -3 30 -30 30 -27 0 -30 -3 -30 -30z"/> <path d="M1659 818 c0 -2 -2 -15 -4 -30 -3 -25 -1 -28 26 -28 26 0 29 3 29 30 0 25 -4 30 -25 30 -14 0 -25 -1 -26 -2z"/> <path d="M1770 790 c0 -24 4 -30 23 -30 17 -1 35 -21 75 -85 52 -83 55 -85 92 -85 30 0 40 -5 45 -20 17 -52 96 -76 154 -46 68 36 68 156 0 192 -55 28 -120 12 -147 -36 -30 -53 -55 -41 -118 55 -52 79 -58 85 -90 85 -31 0 -34 -2 -34 -30z m370 -130 c11 -11 20 -29 20 -40 0 -22 -33 -60 -53 -60 -52 0 -77 75 -35 104 30 21 44 20 68 -4z"/> <path d="M1659 678 c-6 -19 -2 -58 6 -58 5 0 36 -40 68 -89 49 -75 57 -93 48 -110 -26 -48 -2 -128 46 -150 48 -22 92 -14 130 24 33 33 35 39 30 81 -7 66 -42 99 -105 99 l-47 0 -68 103 c-48 72 -74 102 -87 102 -11 0 -20 -1 -21 -2z m241 -258 c31 -17 42 -45 28 -75 -22 -49 -91 -41 -104 12 -6 21 -1 31 20 50 31 26 31 26 56 13z"/> <path d="M1490 91 c0 -58 1 -61 25 -61 23 0 25 3 25 50 0 28 0 53 0 58 0 4 -11 8 -25 10 -24 3 -25 2 -25 -57z"/> </g> </svg> 